<svg xmlns="http://www.w3.org/2000/svg" width="720" height="420" viewBox="0 0 720 420" role="img" aria-label="أبواب القصر">
  <defs>
    <linearGradient id="g" x1="0" y1="0" x2="1" y2="1"><stop offset="0" stop-color="#9f1239"/><stop offset="0.58" stop-color="#e11d48"/><stop offset="1" stop-color="#f472b6"/></linearGradient>
    <radialGradient id="r" cx="25%" cy="20%" r="70%"><stop offset="0" stop-color="#fff" stop-opacity=".45"/><stop offset="1" stop-color="#fff" stop-opacity="0"/></radialGradient>
    <filter id="shadow" x="-20%" y="-20%" width="140%" height="140%"><feDropShadow dx="0" dy="18" stdDeviation="18" flood-color="#111827" flood-opacity=".22"/></filter>
  </defs>
  <rect width="720" height="420" rx="58" fill="url(#g)"/>
  <rect width="720" height="420" rx="58" fill="url(#r)"/>
  <circle cx="108" cy="82" r="72" fill="#fff" opacity=".18"/>
  <circle cx="608" cy="340" r="105" fill="#fff" opacity=".14"/>
  <g filter="url(#shadow)"><path d="M235 148h55v-42h55v42h30v-42h55v42h55v164H235z" fill="#fff" opacity=".95"/><path d="M326 312v-78c0-42 68-42 68 0v78z" fill="#fbcfe8"/><rect x="260" y="184" width="42" height="42" rx="10" fill="#f9a8d4"/><rect x="418" y="184" width="42" height="42" rx="10" fill="#f9a8d4"/><path d="M212 312h296" stroke="#fff" stroke-width="18" stroke-linecap="round" opacity=".65"/></g>
  <text x="360" y="365" text-anchor="middle" font-family="Cairo, Arial, sans-serif" font-size="42" font-weight="800" fill="#fff">أبواب القصر</text>
</svg>