<svg xmlns="http://www.w3.org/2000/svg" width="720" height="420" viewBox="0 0 720 420" role="img" aria-label="المحادثة">
  <defs>
    <linearGradient id="g" x1="0" y1="0" x2="1" y2="1"><stop offset="0" stop-color="#0369a1"/><stop offset="0.58" stop-color="#0284c7"/><stop offset="1" stop-color="#06b6d4"/></linearGradient>
    <radialGradient id="r" cx="25%" cy="20%" r="70%"><stop offset="0" stop-color="#fff" stop-opacity=".45"/><stop offset="1" stop-color="#fff" stop-opacity="0"/></radialGradient>
    <filter id="shadow" x="-20%" y="-20%" width="140%" height="140%"><feDropShadow dx="0" dy="18" stdDeviation="18" flood-color="#111827" flood-opacity=".22"/></filter>
  </defs>
  <rect width="720" height="420" rx="58" fill="url(#g)"/>
  <rect width="720" height="420" rx="58" fill="url(#r)"/>
  <circle cx="108" cy="82" r="72" fill="#fff" opacity=".18"/>
  <circle cx="608" cy="340" r="105" fill="#fff" opacity=".14"/>
  <g filter="url(#shadow)"><path d="M205 128h310c24 0 44 20 44 44v64c0 24-20 44-44 44H352l-78 54 18-54h-87c-24 0-44-20-44-44v-64c0-24 20-44 44-44z" fill="#fff" opacity=".95"/><circle cx="295" cy="204" r="16" fill="#bae6fd"/><circle cx="360" cy="204" r="16" fill="#7dd3fc"/><circle cx="425" cy="204" r="16" fill="#38bdf8"/></g>
  <text x="360" y="365" text-anchor="middle" font-family="Cairo, Arial, sans-serif" font-size="42" font-weight="800" fill="#fff">المحادثة</text>
</svg>