<svg xmlns="http://www.w3.org/2000/svg" width="720" height="420" viewBox="0 0 720 420" role="img" aria-label="إبداعات التلاميذ">
  <defs>
    <linearGradient id="g" x1="0" y1="0" x2="1" y2="1"><stop offset="0" stop-color="#b45309"/><stop offset="0.58" stop-color="#f97316"/><stop offset="1" stop-color="#eab308"/></linearGradient>
    <radialGradient id="r" cx="25%" cy="20%" r="70%"><stop offset="0" stop-color="#fff" stop-opacity=".45"/><stop offset="1" stop-color="#fff" stop-opacity="0"/></radialGradient>
    <filter id="shadow" x="-20%" y="-20%" width="140%" height="140%"><feDropShadow dx="0" dy="18" stdDeviation="18" flood-color="#111827" flood-opacity=".22"/></filter>
  </defs>
  <rect width="720" height="420" rx="58" fill="url(#g)"/>
  <rect width="720" height="420" rx="58" fill="url(#r)"/>
  <circle cx="108" cy="82" r="72" fill="#fff" opacity=".18"/>
  <circle cx="608" cy="340" r="105" fill="#fff" opacity=".14"/>
  <g filter="url(#shadow)"><path d="M360 110c-86 0-144 52-144 116 0 55 46 92 104 92h22c18 0 22-22 8-32-15-11-8-33 13-33h33c64 0 108-35 108-85 0-35-45-58-144-58z" fill="#fff" opacity=".95"/><circle cx="285" cy="195" r="18" fill="#fb7185"/><circle cx="340" cy="168" r="18" fill="#60a5fa"/><circle cx="402" cy="174" r="18" fill="#34d399"/><circle cx="442" cy="220" r="18" fill="#fbbf24"/><path d="M320 292c30 28 86 24 116-10" fill="none" stroke="#fff" stroke-width="16" stroke-linecap="round" opacity=".75"/></g>
  <text x="360" y="365" text-anchor="middle" font-family="Cairo, Arial, sans-serif" font-size="42" font-weight="800" fill="#fff">إبداعات التلاميذ</text>
</svg>