<svg xmlns="http://www.w3.org/2000/svg" viewBox="0 0 900 520">
<defs>
<linearGradient id="g" x1="0" y1="0" x2="1" y2="1"><stop stop-color="#7c3aed"/><stop offset="1" stop-color="#c026d3"/></linearGradient>
<radialGradient id="r" cx=".25" cy=".2" r=".8"><stop stop-color="#fff" stop-opacity=".35"/><stop offset="1" stop-color="#fff" stop-opacity="0"/></radialGradient>
<filter id="s" x="-20%" y="-20%" width="140%" height="140%"><feDropShadow dx="0" dy="22" stdDeviation="20" flood-color="#0f172a" flood-opacity=".22"/></filter>
</defs>
<rect width="900" height="520" rx="54" fill="url(#g)"/>
<rect width="900" height="520" rx="54" fill="url(#r)"/>
<circle cx="108" cy="88" r="70" fill="#fff" opacity=".2"/>
<circle cx="790" cy="430" r="105" fill="#fff" opacity=".14"/>
<path d="M0 410 C160 330 260 510 420 430 C560 360 690 360 900 285 L900 520 L0 520 Z" fill="#fff" opacity=".15"/>
<g filter="url(#s)" transform="translate(250 120)">
<rect x="48" y="110" width="350" height="230" rx="26" fill="#ffffff" opacity=".96"/>
<rect x="95" y="70" width="78" height="250" rx="18" fill="#ede9fe"/>
<rect x="188" y="45" width="82" height="275" rx="18" fill="#f5d0fe"/>
<rect x="285" y="90" width="80" height="230" rx="18" fill="#ddd6fe"/>
<path d="M120 128 H150 M211 110 H248 M307 145 H344" stroke="#7c3aed" stroke-width="10" stroke-linecap="round"/>
<circle cx="216" cy="360" r="22" fill="#fff"/>
</g><text x="450" y="474" text-anchor="middle" font-family="Cairo, Arial" font-weight="800" font-size="34" fill="#fff" opacity=".96">المكتبة الرقمية</text></svg>