<svg xmlns="http://www.w3.org/2000/svg" width="720" height="420" viewBox="0 0 720 420" role="img" aria-label="المجالات">
  <defs>
    <linearGradient id="g" x1="0" y1="0" x2="1" y2="1"><stop offset="0" stop-color="#86198f"/><stop offset="0.58" stop-color="#d946ef"/><stop offset="1" stop-color="#8b5cf6"/></linearGradient>
    <radialGradient id="r" cx="25%" cy="20%" r="70%"><stop offset="0" stop-color="#fff" stop-opacity=".45"/><stop offset="1" stop-color="#fff" stop-opacity="0"/></radialGradient>
    <filter id="shadow" x="-20%" y="-20%" width="140%" height="140%"><feDropShadow dx="0" dy="18" stdDeviation="18" flood-color="#111827" flood-opacity=".22"/></filter>
  </defs>
  <rect width="720" height="420" rx="58" fill="url(#g)"/>
  <rect width="720" height="420" rx="58" fill="url(#r)"/>
  <circle cx="108" cy="82" r="72" fill="#fff" opacity=".18"/>
  <circle cx="608" cy="340" r="105" fill="#fff" opacity=".14"/>
  <g filter="url(#shadow)"><rect x="210" y="128" width="130" height="152" rx="28" fill="#fff" opacity=".94"/><rect x="380" y="128" width="130" height="152" rx="28" fill="#fff" opacity=".94"/><path d="M275 160l18 36 40 6-29 28 7 40-36-19-36 19 7-40-29-28 40-6z" fill="#f0abfc"/><path d="M445 160l18 36 40 6-29 28 7 40-36-19-36 19 7-40-29-28 40-6z" fill="#c4b5fd"/></g>
  <text x="360" y="365" text-anchor="middle" font-family="Cairo, Arial, sans-serif" font-size="42" font-weight="800" fill="#fff">المجالات</text>
</svg>