<svg xmlns="http://www.w3.org/2000/svg" width="720" height="420" viewBox="0 0 720 420" role="img" aria-label="مشاريع المجموعات">
  <defs>
    <linearGradient id="g" x1="0" y1="0" x2="1" y2="1"><stop offset="0" stop-color="#c2410c"/><stop offset="0.58" stop-color="#f97316"/><stop offset="1" stop-color="#f59e0b"/></linearGradient>
    <radialGradient id="r" cx="25%" cy="20%" r="70%"><stop offset="0" stop-color="#fff" stop-opacity=".45"/><stop offset="1" stop-color="#fff" stop-opacity="0"/></radialGradient>
    <filter id="shadow" x="-20%" y="-20%" width="140%" height="140%"><feDropShadow dx="0" dy="18" stdDeviation="18" flood-color="#111827" flood-opacity=".22"/></filter>
  </defs>
  <rect width="720" height="420" rx="58" fill="url(#g)"/>
  <rect width="720" height="420" rx="58" fill="url(#r)"/>
  <circle cx="108" cy="82" r="72" fill="#fff" opacity=".18"/>
  <circle cx="608" cy="340" r="105" fill="#fff" opacity=".14"/>
  <g filter="url(#shadow)"><path d="M205 150h130l32 38h148v118H205z" fill="#fff" opacity=".95"/><path d="M230 126h130l30 36H230z" fill="#fed7aa" opacity=".95"/><path d="M360 248c48-76 90-98 120-96-2 44-28 83-98 124z" fill="#fff"/><circle cx="442" cy="190" r="18" fill="#fb923c"/><path d="M344 264l-28 36 45-18z" fill="#ffedd5"/></g>
  <text x="360" y="365" text-anchor="middle" font-family="Cairo, Arial, sans-serif" font-size="42" font-weight="800" fill="#fff">مشاريع المجموعات</text>
</svg>